# xmcd
#
# Track frame offsets: 
#        150
#        21605
#        46071
#        66480
#        93514
#        118238
#        141211
#        162437
#        188043
#        208920
#
# Disc length: 3048 seconds
#
# Revision: 0
# Processed by: cddbd v1.5.2PL0 Copyright (c) Steve Scherf et al.
# Submitted via: ExactAudioCopy v1.0b3
#
DISCID=9a0be60a
DTITLE=Huong Lan, Vu Linh - Lo Mai Doi Chia Cach
DYEAR=1998
DGENRE=
TTITLE0=Huong Lan - Dung xa roi nhau
TTITLE1=Vu Linh - Phan to tam
TTITLE2=Huong Lan - Anh da ra di
TTITLE3=Vu Linh - Ao em chua mac mot lan
TTITLE4=Huong Lan - Loi goi chim quyen
TTITLE5=Huong Lan - Lo mai doi chia cach
TTITLE6=Vu Linh - Mot coi di ve
TTITLE7=Huong Lan - Gio mua goi nho
TTITLE8=Vu Linh - Hoa su nha nang
TTITLE9=Huong Lan - Tam su cho nguoi
EXTD=
EXTT0=
EXTT1=
EXTT2=
EXTT3=
EXTT4=
EXTT5=
EXTT6=
EXTT7=
EXTT8=
EXTT9=
PLAYORDER=
